<svg width="24" height="16" viewBox="0 0 24 16" fill="none" xmlns="http://www.w3.org/2000/svg">
<path d="M12.8466 14.2844C13.096 14.1679 13.2831 14.0036 13.4278 13.8585C13.5622 13.7237 13.7098 13.5533 13.8637 13.3755L13.8823 13.3541L21.0131 5.12009L21.037 5.09249C21.3133 4.77348 21.5564 4.49278 21.7327 4.25584C21.902 4.02825 22.1179 3.70511 22.1797 3.30682C22.3024 2.51681 21.9428 1.72965 21.2653 1.30518C20.9237 1.09118 20.5381 1.0428 20.2552 1.02181C19.9607 0.999966 19.5894 0.999982 19.1674 0.999998L19.1308 1L4.86916 1L4.83264 0.999998C4.41062 0.999982 4.03927 0.999966 3.74476 1.02181C3.46186 1.0428 3.07628 1.09118 2.73472 1.30518C2.05723 1.72965 1.69763 2.51681 1.82027 3.30682C1.8821 3.70511 2.09796 4.02825 2.2673 4.25584C2.4436 4.49279 2.68674 4.77352 2.96305 5.09256L2.98689 5.12009L10.1177 13.3541L10.1363 13.3755C10.2902 13.5532 10.4378 13.7237 10.5722 13.8585C10.7169 14.0036 10.904 14.1679 11.1534 14.2844C11.6899 14.5352 12.3101 14.5352 12.8466 14.2844Z" fill="#D9D9D9" stroke="#828FA3" stroke-width="2"/>
</svg>
