<svg width="60" height="55" viewBox="0 0 60 55" fill="none" xmlns="http://www.w3.org/2000/svg">
<path d="M28 54L59 54L1 54L28 54Z" fill="#828FA3" stroke="#BAAA72" stroke-width="2"/>
<path d="M24.8307 4.01757C25.8548 0.956159 41.2157 -4.14622 43.2638 6.05851C52.3771 11.0615 52.5356 14.8223 48.3841 22.386C49.3669 27.685 48.3706 29.7917 41.2157 30.5497C38.8845 33.8758 37.1778 33.5834 34.0472 32.5907V48.9181L35.0713 53H22.7826L24.8307 46.8772V32.5907C19.5952 33.7479 17.2697 33.5191 14.9029 30.5497C10.0344 29.0948 9.10423 27.2872 10.4939 22.386C6.9832 16.2329 6.7622 13.3388 12.542 10.1404C12.4046 0.283484 22.7826 1.97663 24.8307 4.01757Z" fill="#BAAA72"/>
</svg>
