<svg width="52" height="52" viewBox="0 0 52 52" fill="none" xmlns="http://www.w3.org/2000/svg">
<path d="M38 26.7778C38 28.2426 37.6932 29.6948 37.0953 31.0518C36.4973 32.4091 35.6191 33.6465 34.5074 34.6916C33.3956 35.7369 32.0725 36.5691 30.612 37.1378C29.1515 37.7066 27.5841 38 26 38C24.4159 38 22.8485 37.7066 21.388 37.1378C19.9275 36.5691 18.6044 35.7369 17.4926 34.6916C16.3809 33.6465 15.5027 32.4091 14.9047 31.0518C14.3068 29.6948 14 28.2426 14 26.7778V20H38V26.7778Z" fill="white" stroke="#828FA3" stroke-width="2"/>
<line x1="12.5" y1="19.5" x2="39.5" y2="19.5" stroke="#828FA3" stroke-width="3" stroke-linecap="round"/>
<line x1="20.5" y1="19.5" x2="20.5" y2="8.5" stroke="#828FA3" stroke-width="3" stroke-linecap="round"/>
<line x1="26" y1="45" x2="26" y2="39" stroke="#828FA3" stroke-width="4" stroke-linecap="round"/>
<line x1="31.5" y1="19.5" x2="31.5" y2="8.5" stroke="#828FA3" stroke-width="3" stroke-linecap="round"/>
<circle cx="26" cy="26" r="25" stroke="#828FA3" stroke-width="2"/>
<path d="M26.01 36.216C25.134 36.216 24.324 36.048 23.58 35.712C22.836 35.376 22.188 34.902 21.636 34.29C21.096 33.666 20.676 32.934 20.376 32.094C20.076 31.242 19.926 30.306 19.926 29.286C19.926 28.266 20.07 27.336 20.358 26.496C20.658 25.656 21.078 24.93 21.618 24.318C22.17 23.694 22.818 23.214 23.562 22.878C24.306 22.542 25.128 22.374 26.028 22.374C27.24 22.374 28.308 22.692 29.232 23.328C30.156 23.952 30.798 24.81 31.158 25.902L28.944 26.748C28.704 26.064 28.326 25.53 27.81 25.146C27.294 24.762 26.694 24.57 26.01 24.57C25.314 24.57 24.69 24.774 24.138 25.182C23.586 25.59 23.154 26.148 22.842 26.856C22.53 27.552 22.374 28.362 22.374 29.286C22.374 30.21 22.524 31.032 22.824 31.752C23.136 32.46 23.562 33.012 24.102 33.408C24.654 33.804 25.29 34.002 26.01 34.002C26.694 34.002 27.294 33.81 27.81 33.426C28.326 33.042 28.704 32.514 28.944 31.842L31.158 32.688C30.918 33.42 30.546 34.05 30.042 34.578C29.55 35.094 28.956 35.496 28.26 35.784C27.576 36.072 26.826 36.216 26.01 36.216ZM18.45 31.338V29.826H26.46V31.338H18.45ZM18.45 28.746V27.234H26.46V28.746H18.45Z" fill="#BAAA72"/>
</svg>
