<svg width="52" height="52" viewBox="0 0 52 52" fill="none" xmlns="http://www.w3.org/2000/svg">
<path d="M38 26.7778C38 28.2426 37.6932 29.6948 37.0953 31.0518C36.4973 32.4091 35.6191 33.6465 34.5074 34.6916C33.3956 35.7369 32.0725 36.5691 30.612 37.1378C29.1515 37.7066 27.5841 38 26 38C24.4159 38 22.8485 37.7066 21.388 37.1378C19.9275 36.5691 18.6044 35.7369 17.4926 34.6916C16.3809 33.6465 15.5027 32.4091 14.9047 31.0518C14.3068 29.6948 14 28.2426 14 26.7778V20H38V26.7778Z" fill="white" stroke="#828FA3" stroke-width="2"/>
<line x1="12.5" y1="19.5" x2="39.5" y2="19.5" stroke="#828FA3" stroke-width="3" stroke-linecap="round"/>
<line x1="20.5" y1="19.5" x2="20.5" y2="8.5" stroke="#828FA3" stroke-width="3" stroke-linecap="round"/>
<line x1="26" y1="45" x2="26" y2="39" stroke="#828FA3" stroke-width="4" stroke-linecap="round"/>
<line x1="31.5" y1="19.5" x2="31.5" y2="8.5" stroke="#828FA3" stroke-width="3" stroke-linecap="round"/>
<circle cx="26" cy="26" r="25" stroke="#828FA3" stroke-width="2"/>
<path d="M24.424 35.288C23.512 35.288 22.72 35.136 22.048 34.832C21.376 34.528 20.856 34.096 20.488 33.536C20.12 32.96 19.936 32.296 19.936 31.544C19.936 30.824 20.096 30.184 20.416 29.624C20.736 29.048 21.232 28.568 21.904 28.184C22.576 27.8 23.424 27.528 24.448 27.368L28.72 26.672V29.072L25.048 29.696C24.424 29.808 23.96 30.008 23.656 30.296C23.352 30.584 23.2 30.96 23.2 31.424C23.2 31.872 23.368 32.232 23.704 32.504C24.056 32.76 24.488 32.888 25 32.888C25.656 32.888 26.232 32.752 26.728 32.48C27.24 32.192 27.632 31.8 27.904 31.304C28.192 30.808 28.336 30.264 28.336 29.672V26.312C28.336 25.752 28.112 25.288 27.664 24.92C27.232 24.536 26.656 24.344 25.936 24.344C25.264 24.344 24.664 24.528 24.136 24.896C23.624 25.248 23.248 25.72 23.008 26.312L20.44 25.064C20.696 24.376 21.096 23.784 21.64 23.288C22.2 22.776 22.856 22.376 23.608 22.088C24.36 21.8 25.176 21.656 26.056 21.656C27.128 21.656 28.072 21.856 28.888 22.256C29.704 22.64 30.336 23.184 30.784 23.888C31.248 24.576 31.48 25.384 31.48 26.312V35H28.504V32.768L29.176 32.72C28.84 33.28 28.44 33.752 27.976 34.136C27.512 34.504 26.984 34.792 26.392 35C25.8 35.192 25.144 35.288 24.424 35.288Z" fill="#BAAA72"/>
</svg>
