<svg width="53" height="52" viewBox="0 0 53 52" fill="none" xmlns="http://www.w3.org/2000/svg">
<mask id="path-1-inside-1_154_315" fill="white">
<path d="M27 0C33.8956 0 40.5088 2.73928 45.3848 7.61522C50.2607 12.4912 53 19.1044 53 26C53 32.8956 50.2607 39.5088 45.3848 44.3848C40.5088 49.2607 33.8956 52 27 52L27 45.5C32.1717 45.5 37.1316 43.4455 40.7886 39.7886C44.4455 36.1316 46.5 31.1717 46.5 26C46.5 20.8283 44.4455 15.8684 40.7886 12.2114C37.1316 8.55446 32.1717 6.5 27 6.5L27 0Z"/>
</mask>
<path d="M27 0C33.8956 0 40.5088 2.73928 45.3848 7.61522C50.2607 12.4912 53 19.1044 53 26C53 32.8956 50.2607 39.5088 45.3848 44.3848C40.5088 49.2607 33.8956 52 27 52L27 45.5C32.1717 45.5 37.1316 43.4455 40.7886 39.7886C44.4455 36.1316 46.5 31.1717 46.5 26C46.5 20.8283 44.4455 15.8684 40.7886 12.2114C37.1316 8.55446 32.1717 6.5 27 6.5L27 0Z" fill="#D9D9D9"/>
<path d="M27 0C33.8956 0 40.5088 2.73928 45.3848 7.61522C50.2607 12.4912 53 19.1044 53 26C53 32.8956 50.2607 39.5088 45.3848 44.3848C40.5088 49.2607 33.8956 52 27 52L27 45.5C32.1717 45.5 37.1316 43.4455 40.7886 39.7886C44.4455 36.1316 46.5 31.1717 46.5 26C46.5 20.8283 44.4455 15.8684 40.7886 12.2114C37.1316 8.55446 32.1717 6.5 27 6.5L27 0Z" stroke="#72BA97" stroke-width="12" mask="url(#path-1-inside-1_154_315)"/>
<path d="M27 0C33.8956 0 40.5088 2.73928 45.3848 7.61522C50.2607 12.4912 53 19.1044 53 26C53 32.8956 50.2607 39.5088 45.3848 44.3848C40.5088 49.2607 33.8956 52 27 52L27 45.5C32.1717 45.5 37.1316 43.4455 40.7886 39.7886C44.4455 36.1316 46.5 31.1717 46.5 26C46.5 20.8283 44.4455 15.8684 40.7886 12.2114C37.1316 8.55446 32.1717 6.5 27 6.5L27 0Z" stroke="#72BA97" stroke-width="12" mask="url(#path-1-inside-1_154_315)"/>
<path d="M27 0C33.8956 0 40.5088 2.73928 45.3848 7.61522C50.2607 12.4912 53 19.1044 53 26C53 32.8956 50.2607 39.5088 45.3848 44.3848C40.5088 49.2607 33.8956 52 27 52L27 45.5C32.1717 45.5 37.1316 43.4455 40.7886 39.7886C44.4455 36.1316 46.5 31.1717 46.5 26C46.5 20.8283 44.4455 15.8684 40.7886 12.2114C37.1316 8.55446 32.1717 6.5 27 6.5L27 0Z" stroke="#7286BA" stroke-width="12" mask="url(#path-1-inside-1_154_315)"/>
<mask id="path-2-inside-2_154_315" fill="white">
<path d="M26 52C19.1044 52 12.4912 49.2607 7.61522 44.3848C2.73928 39.5088 5.20606e-07 32.8956 0 26C-5.20605e-07 19.1044 2.73928 12.4912 7.61522 7.61523C12.4912 2.73928 19.1044 1.04121e-06 26 0L26 6.5C20.8283 6.5 15.8684 8.55446 12.2114 12.2114C8.55446 15.8684 6.5 20.8283 6.5 26C6.5 31.1717 8.55446 36.1316 12.2114 39.7886C15.8684 43.4455 20.8283 45.5 26 45.5L26 52Z"/>
</mask>
<path d="M26 52C19.1044 52 12.4912 49.2607 7.61522 44.3848C2.73928 39.5088 5.20606e-07 32.8956 0 26C-5.20605e-07 19.1044 2.73928 12.4912 7.61522 7.61523C12.4912 2.73928 19.1044 1.04121e-06 26 0L26 6.5C20.8283 6.5 15.8684 8.55446 12.2114 12.2114C8.55446 15.8684 6.5 20.8283 6.5 26C6.5 31.1717 8.55446 36.1316 12.2114 39.7886C15.8684 43.4455 20.8283 45.5 26 45.5L26 52Z" fill="#D9D9D9"/>
<path d="M26 52C19.1044 52 12.4912 49.2607 7.61522 44.3848C2.73928 39.5088 5.20606e-07 32.8956 0 26C-5.20605e-07 19.1044 2.73928 12.4912 7.61522 7.61523C12.4912 2.73928 19.1044 1.04121e-06 26 0L26 6.5C20.8283 6.5 15.8684 8.55446 12.2114 12.2114C8.55446 15.8684 6.5 20.8283 6.5 26C6.5 31.1717 8.55446 36.1316 12.2114 39.7886C15.8684 43.4455 20.8283 45.5 26 45.5L26 52Z" stroke="#72BA97" stroke-width="12" mask="url(#path-2-inside-2_154_315)"/>
<path d="M26 52C19.1044 52 12.4912 49.2607 7.61522 44.3848C2.73928 39.5088 5.20606e-07 32.8956 0 26C-5.20605e-07 19.1044 2.73928 12.4912 7.61522 7.61523C12.4912 2.73928 19.1044 1.04121e-06 26 0L26 6.5C20.8283 6.5 15.8684 8.55446 12.2114 12.2114C8.55446 15.8684 6.5 20.8283 6.5 26C6.5 31.1717 8.55446 36.1316 12.2114 39.7886C15.8684 43.4455 20.8283 45.5 26 45.5L26 52Z" stroke="#72BA97" stroke-width="12" mask="url(#path-2-inside-2_154_315)"/>
<path d="M26 52C19.1044 52 12.4912 49.2607 7.61522 44.3848C2.73928 39.5088 5.20606e-07 32.8956 0 26C-5.20605e-07 19.1044 2.73928 12.4912 7.61522 7.61523C12.4912 2.73928 19.1044 1.04121e-06 26 0L26 6.5C20.8283 6.5 15.8684 8.55446 12.2114 12.2114C8.55446 15.8684 6.5 20.8283 6.5 26C6.5 31.1717 8.55446 36.1316 12.2114 39.7886C15.8684 43.4455 20.8283 45.5 26 45.5L26 52Z" stroke="#72BA97" stroke-width="12" mask="url(#path-2-inside-2_154_315)"/>
<path d="M17.672 34L32.168 16.12H35.528L21.032 34H17.672ZM20.456 25.192C19.576 25.192 18.776 24.984 18.056 24.568C17.352 24.136 16.792 23.568 16.376 22.864C15.96 22.16 15.752 21.376 15.752 20.512C15.752 19.648 15.96 18.864 16.376 18.16C16.792 17.44 17.352 16.872 18.056 16.456C18.776 16.04 19.576 15.832 20.456 15.832C21.352 15.832 22.152 16.04 22.856 16.456C23.56 16.872 24.12 17.44 24.536 18.16C24.952 18.864 25.16 19.648 25.16 20.512C25.16 21.376 24.952 22.16 24.536 22.864C24.12 23.568 23.56 24.136 22.856 24.568C22.152 24.984 21.352 25.192 20.456 25.192ZM20.456 22.768C20.936 22.768 21.336 22.664 21.656 22.456C21.976 22.232 22.216 21.952 22.376 21.616C22.552 21.264 22.64 20.896 22.64 20.512C22.64 20.112 22.552 19.744 22.376 19.408C22.216 19.072 21.976 18.792 21.656 18.568C21.336 18.344 20.936 18.232 20.456 18.232C20.008 18.232 19.616 18.344 19.28 18.568C18.96 18.792 18.712 19.08 18.536 19.432C18.36 19.768 18.272 20.128 18.272 20.512C18.272 20.88 18.36 21.24 18.536 21.592C18.712 21.944 18.96 22.232 19.28 22.456C19.616 22.664 20.008 22.768 20.456 22.768ZM32.648 34.288C31.768 34.288 30.968 34.08 30.248 33.664C29.544 33.232 28.984 32.664 28.568 31.96C28.152 31.256 27.944 30.472 27.944 29.608C27.944 28.744 28.152 27.96 28.568 27.256C28.984 26.536 29.544 25.968 30.248 25.552C30.968 25.136 31.768 24.928 32.648 24.928C33.544 24.928 34.344 25.136 35.048 25.552C35.752 25.968 36.312 26.536 36.728 27.256C37.144 27.96 37.352 28.744 37.352 29.608C37.352 30.472 37.144 31.256 36.728 31.96C36.312 32.664 35.752 33.232 35.048 33.664C34.344 34.08 33.544 34.288 32.648 34.288ZM32.648 31.864C33.112 31.864 33.504 31.76 33.824 31.552C34.16 31.328 34.408 31.048 34.568 30.712C34.744 30.36 34.832 29.992 34.832 29.608C34.832 29.208 34.744 28.84 34.568 28.504C34.408 28.168 34.16 27.888 33.824 27.664C33.504 27.44 33.112 27.328 32.648 27.328C32.2 27.328 31.808 27.44 31.472 27.664C31.152 27.888 30.904 28.176 30.728 28.528C30.552 28.864 30.464 29.224 30.464 29.608C30.464 29.976 30.552 30.336 30.728 30.688C30.904 31.04 31.152 31.328 31.472 31.552C31.808 31.76 32.2 31.864 32.648 31.864Z" fill="#BAAA72"/>
</svg>
