<svg width="148" height="32" viewBox="0 0 148 32" fill="none" xmlns="http://www.w3.org/2000/svg">
<path d="M0.14775 24V0.159998H15.9878V4H4.49975V10.112H15.3478V13.952H4.49975V20.16H15.9878V24H0.14775ZM89.7415 24V0.159998H94.0935V12.576L92.9095 12.16L103.054 0.159998H108.526L99.0215 11.424L99.2775 8.352L108.814 24H103.694L97.2935 13.504L94.0935 17.312V24H89.7415Z" fill="#72BA97"/>
<path d="M18.827 24V6.592H22.763V10.016L22.443 9.408C22.8483 8.36267 23.5097 7.57333 24.427 7.04C25.3657 6.48533 26.4537 6.208 27.691 6.208C28.971 6.208 30.1017 6.48533 31.083 7.04C32.0857 7.59467 32.8643 8.37333 33.419 9.376C33.9737 10.3573 34.251 11.4987 34.251 12.8V24H30.059V13.792C30.059 13.024 29.9097 12.3627 29.611 11.808C29.3123 11.2533 28.8963 10.8267 28.363 10.528C27.851 10.208 27.243 10.048 26.539 10.048C25.8563 10.048 25.2483 10.208 24.715 10.528C24.1817 10.8267 23.7657 11.2533 23.467 11.808C23.1683 12.3627 23.019 13.024 23.019 13.792V24H18.827ZM37.7958 24V6.592H41.7318V10.464L41.4118 9.888C41.8171 8.58667 42.4464 7.68 43.2998 7.168C44.1744 6.656 45.2198 6.4 46.4358 6.4H47.4598V10.112H45.9558C44.7611 10.112 43.8011 10.4853 43.0758 11.232C42.3504 11.9573 41.9878 12.9813 41.9878 14.304V24H37.7958ZM58.2125 31.04C56.9112 31.04 55.7058 30.8267 54.5965 30.4C53.4872 29.9733 52.5272 29.376 51.7165 28.608C50.9272 27.8613 50.3512 26.976 49.9885 25.952L53.8925 24.48C54.1485 25.2907 54.6498 25.9413 55.3965 26.432C56.1645 26.944 57.1032 27.2 58.2125 27.2C59.0658 27.2 59.8125 27.04 60.4525 26.72C61.1138 26.4 61.6258 25.9307 61.9885 25.312C62.3512 24.7147 62.5325 23.9893 62.5325 23.136V19.168L63.3325 20.128C62.7352 21.1733 61.9352 21.9627 60.9325 22.496C59.9298 23.0293 58.7885 23.296 57.5085 23.296C55.8872 23.296 54.4365 22.9227 53.1565 22.176C51.8765 21.4293 50.8738 20.4053 50.1485 19.104C49.4232 17.8027 49.0605 16.3413 49.0605 14.72C49.0605 13.0773 49.4232 11.616 50.1485 10.336C50.8738 9.056 51.8658 8.05333 53.1245 7.328C54.3832 6.58133 55.8125 6.208 57.4125 6.208C58.7138 6.208 59.8552 6.48533 60.8365 7.04C61.8392 7.57333 62.6712 8.352 63.3325 9.376L62.7565 10.432V6.592H66.7245V23.136C66.7245 24.6507 66.3512 26.0053 65.6045 27.2C64.8792 28.3947 63.8765 29.3333 62.5965 30.016C61.3378 30.6987 59.8765 31.04 58.2125 31.04ZM58.0205 19.424C58.9165 19.424 59.6952 19.232 60.3565 18.848C61.0392 18.4427 61.5725 17.888 61.9565 17.184C62.3405 16.48 62.5325 15.6693 62.5325 14.752C62.5325 13.856 62.3298 13.056 61.9245 12.352C61.5405 11.6267 61.0072 11.0613 60.3245 10.656C59.6632 10.2507 58.8952 10.048 58.0205 10.048C57.1458 10.048 56.3565 10.2507 55.6525 10.656C54.9485 11.0613 54.3938 11.6267 53.9885 12.352C53.6045 13.056 53.4125 13.856 53.4125 14.752C53.4125 15.648 53.6045 16.448 53.9885 17.152C54.3938 17.856 54.9378 18.4107 55.6205 18.816C56.3245 19.2213 57.1245 19.424 58.0205 19.424ZM72.7515 31.072C72.2822 31.072 71.8235 31.0293 71.3755 30.944C70.9275 30.88 70.5222 30.7627 70.1595 30.592V27.072C70.4368 27.136 70.7675 27.2 71.1515 27.264C71.5568 27.328 71.9302 27.36 72.2715 27.36C73.2315 27.36 73.9248 27.136 74.3515 26.688C74.7995 26.24 75.1942 25.6533 75.5355 24.928L76.6875 22.24L76.6235 25.76L69.0395 6.592H73.5515L78.8635 20.736H77.2635L82.5435 6.592H87.0875L79.5035 25.76C79.0555 26.8907 78.5115 27.8507 77.8715 28.64C77.2315 29.4293 76.4848 30.0267 75.6315 30.432C74.7995 30.8587 73.8395 31.072 72.7515 31.072ZM119.62 24.384C117.914 24.384 116.356 23.9893 114.948 23.2C113.562 22.4107 112.452 21.3333 111.62 19.968C110.81 18.6027 110.404 17.0453 110.404 15.296C110.404 13.5467 110.81 11.9893 111.62 10.624C112.452 9.25867 113.562 8.18133 114.948 7.392C116.335 6.60266 117.892 6.208 119.62 6.208C121.327 6.208 122.874 6.60266 124.26 7.392C125.647 8.18133 126.746 9.25867 127.556 10.624C128.388 11.968 128.804 13.5253 128.804 15.296C128.804 17.0453 128.388 18.6027 127.556 19.968C126.724 21.3333 125.615 22.4107 124.228 23.2C122.842 23.9893 121.306 24.384 119.62 24.384ZM119.62 20.544C120.559 20.544 121.38 20.32 122.084 19.872C122.81 19.424 123.375 18.8053 123.78 18.016C124.207 17.2053 124.42 16.2987 124.42 15.296C124.42 14.272 124.207 13.376 123.78 12.608C123.375 11.8187 122.81 11.2 122.084 10.752C121.38 10.2827 120.559 10.048 119.62 10.048C118.66 10.048 117.818 10.2827 117.092 10.752C116.367 11.2 115.791 11.8187 115.364 12.608C114.959 13.376 114.756 14.272 114.756 15.296C114.756 16.2987 114.959 17.2053 115.364 18.016C115.791 18.8053 116.367 19.424 117.092 19.872C117.818 20.32 118.66 20.544 119.62 20.544ZM131.983 24V6.592H135.919V10.016L135.599 9.408C136.005 8.36267 136.666 7.57333 137.583 7.04C138.522 6.48533 139.61 6.208 140.847 6.208C142.127 6.208 143.258 6.48533 144.239 7.04C145.242 7.59467 146.021 8.37333 146.575 9.376C147.13 10.3573 147.407 11.4987 147.407 12.8V24H143.215V13.792C143.215 13.024 143.066 12.3627 142.767 11.808C142.469 11.2533 142.053 10.8267 141.519 10.528C141.007 10.208 140.399 10.048 139.695 10.048C139.013 10.048 138.405 10.208 137.871 10.528C137.338 10.8267 136.922 11.2533 136.623 11.808C136.325 12.3627 136.175 13.024 136.175 13.792V24H131.983Z" fill="#828FA3"/>
</svg>
