<svg width="52" height="52" viewBox="0 0 52 52" fill="none" xmlns="http://www.w3.org/2000/svg">
<circle cx="25.9998" cy="26" r="13" transform="rotate(-44.7536 25.9998 26)" fill="#828FA3"/>
<path d="M7.69408 7.5363L15.9626 10.956L11.0426 15.8339L7.69408 7.5363Z" fill="#828FA3"/>
<path d="M44.3059 44.4637L36.0374 41.044L40.9574 36.1661L44.3059 44.4637Z" fill="#828FA3"/>
<path d="M7.5363 44.3056L10.956 36.0371L15.8339 40.9571L7.5363 44.3056Z" fill="#828FA3"/>
<path d="M44.4637 7.69445L41.044 15.9629L36.1661 11.0429L44.4637 7.69445Z" fill="#828FA3"/>
<path d="M26 0L29.4641 8.25L22.5359 8.25L26 0Z" fill="#828FA3"/>
<path d="M26 52L22.5359 43.75H29.4641L26 52Z" fill="#828FA3"/>
<path d="M0 26L8.25 22.5359V29.4641L0 26Z" fill="#828FA3"/>
<path d="M52 26L43.75 29.4641V22.5359L52 26Z" fill="#828FA3"/>
</svg>
