<svg width="59" height="48" viewBox="0 0 59 48" fill="none" xmlns="http://www.w3.org/2000/svg">
<path d="M57.9807 41.2738C57.9807 42.9675 57.8619 44.2137 57.6561 45.1127C57.4483 46.0203 57.1727 46.4809 56.934 46.7107C56.7284 46.9087 56.474 47.0101 56.0667 46.9993C55.622 46.9874 55.046 46.8395 54.3032 46.5477C53.5686 46.2591 52.752 45.8635 51.8295 45.4112C51.7718 45.3829 51.7137 45.3544 51.6553 45.3258C50.7922 44.9023 49.8508 44.4404 48.8617 44.0122C46.7526 43.0993 44.3402 42.2995 41.7622 42.2995C39.1842 42.2995 36.7718 43.0993 34.6627 44.0122C33.6736 44.4404 32.7322 44.9023 31.8691 45.3258C31.8106 45.3544 31.7526 45.3829 31.6949 45.4112C30.7724 45.8635 29.9558 46.2591 29.2212 46.5477C28.4784 46.8395 27.9024 46.9874 27.4577 46.9993C27.0504 47.0101 26.796 46.9087 26.5904 46.7107C26.3517 46.4809 26.0761 46.0203 25.8683 45.1127C25.6624 44.2137 25.5437 42.9675 25.5437 41.2738C25.5437 34.5275 27.4236 28.4636 30.4111 24.1142C33.4018 19.7602 37.432 17.2057 41.7622 17.2057C46.0924 17.2057 50.1226 19.7602 53.1132 24.1142C56.1008 28.4636 57.9807 34.5275 57.9807 41.2738Z" fill="white" stroke="#BAAA72" stroke-width="2"/>
<circle cx="42.0154" cy="10.3818" r="9.38176" fill="white" stroke="#BAAA72" stroke-width="2"/>
<path d="M33.9807 41.2738C33.9807 42.9675 33.8619 44.2137 33.6561 45.1127C33.4483 46.0203 33.1727 46.4809 32.934 46.7107C32.7284 46.9087 32.474 47.0101 32.0667 46.9993C31.622 46.9874 31.046 46.8395 30.3032 46.5477C29.5686 46.2591 28.752 45.8635 27.8295 45.4112C27.7718 45.3829 27.7137 45.3544 27.6553 45.3258C26.7922 44.9023 25.8508 44.4404 24.8617 44.0122C22.7526 43.0993 20.3402 42.2995 17.7622 42.2995C15.1842 42.2995 12.7718 43.0993 10.6627 44.0122C9.67356 44.4404 8.73222 44.9023 7.86906 45.3258C7.81065 45.3544 7.75259 45.3829 7.6949 45.4112C6.77237 45.8635 5.95576 46.2591 5.22119 46.5477C4.47842 46.8395 3.90237 46.9874 3.45766 46.9993C3.05043 47.0101 2.796 46.9087 2.59036 46.7107C2.35168 46.4809 2.07607 46.0203 1.86827 45.1127C1.66244 44.2137 1.54367 42.9675 1.54367 41.2738C1.54367 34.5275 3.42361 28.4636 6.41114 24.1142C9.40177 19.7602 13.432 17.2057 17.7622 17.2057C22.0924 17.2057 26.1226 19.7602 29.1132 24.1142C32.1008 28.4636 33.9807 34.5275 33.9807 41.2738Z" fill="white" stroke="#BAAA72" stroke-width="2"/>
<circle cx="18.0154" cy="10.3818" r="9.38176" fill="white" stroke="#BAAA72" stroke-width="2"/>
</svg>
