<svg width="76" height="57" viewBox="0 0 76 57" fill="none" xmlns="http://www.w3.org/2000/svg">
<path d="M33.5804 41.2738C33.5804 42.9675 33.4616 44.2137 33.2558 45.1127C33.048 46.0203 32.7724 46.4809 32.5337 46.7107C32.3281 46.9087 32.0736 47.0101 31.6664 46.9993C31.2217 46.9874 30.6456 46.8395 29.9029 46.5477C29.1683 46.2591 28.3517 45.8635 27.4292 45.4112C27.3715 45.3829 27.3134 45.3544 27.255 45.3258C26.3919 44.9023 25.4505 44.4404 24.4613 44.0122C22.3522 43.0993 19.9398 42.2995 17.3619 42.2995C14.7839 42.2995 12.3715 43.0993 10.2624 44.0122C9.27323 44.4404 8.33189 44.9023 7.46873 45.3258C7.41032 45.3544 7.35226 45.3829 7.29457 45.4112C6.37204 45.8635 5.55543 46.2591 4.82087 46.5477C4.07809 46.8395 3.50204 46.9874 3.05733 46.9993C2.6501 47.0101 2.39567 46.9087 2.19003 46.7107C1.95135 46.4809 1.67574 46.0203 1.46794 45.1127C1.26212 44.2137 1.14334 42.9675 1.14334 41.2738C1.14334 34.5275 3.02328 28.4636 6.01081 24.1142C9.00144 19.7602 13.0316 17.2057 17.3619 17.2057C21.6921 17.2057 25.7223 19.7602 28.7129 24.1142C31.7004 28.4636 33.5804 34.5275 33.5804 41.2738Z" fill="white" stroke="#BAAA72" stroke-width="2"/>
<circle cx="17.6151" cy="10.3818" r="9.38176" fill="white" stroke="#BAAA72" stroke-width="2"/>
<path d="M74.5804 41.2738C74.5804 42.9675 74.4616 44.2137 74.2558 45.1127C74.048 46.0203 73.7724 46.4809 73.5337 46.7107C73.3281 46.9087 73.0736 47.0101 72.6664 46.9993C72.2217 46.9874 71.6456 46.8395 70.9029 46.5477C70.1683 46.2591 69.3517 45.8635 68.4292 45.4112C68.3715 45.3829 68.3134 45.3544 68.255 45.3258C67.3919 44.9023 66.4505 44.4404 65.4613 44.0122C63.3522 43.0993 60.9398 42.2995 58.3619 42.2995C55.7839 42.2995 53.3715 43.0993 51.2624 44.0122C50.2732 44.4404 49.3319 44.9023 48.4687 45.3258C48.4103 45.3544 48.3523 45.3829 48.2946 45.4112C47.372 45.8635 46.5554 46.2591 45.8209 46.5477C45.0781 46.8395 44.502 46.9874 44.0573 46.9993C43.6501 47.0101 43.3957 46.9087 43.19 46.7107C42.9514 46.4809 42.6757 46.0203 42.4679 45.1127C42.2621 44.2137 42.1433 42.9675 42.1433 41.2738C42.1433 34.5275 44.0233 28.4636 47.0108 24.1142C50.0014 19.7602 54.0316 17.2057 58.3619 17.2057C62.6921 17.2057 66.7223 19.7602 69.7129 24.1142C72.7004 28.4636 74.5804 34.5275 74.5804 41.2738Z" fill="white" stroke="#BAAA72" stroke-width="2"/>
<circle cx="58.6151" cy="10.3818" r="9.38176" fill="white" stroke="#BAAA72" stroke-width="2"/>
<path d="M54.5804 50.2738C54.5804 51.9675 54.4616 53.2137 54.2558 54.1127C54.048 55.0203 53.7724 55.4809 53.5337 55.7107C53.3281 55.9087 53.0736 56.0101 52.6664 55.9993C52.2217 55.9874 51.6456 55.8395 50.9029 55.5477C50.1683 55.2591 49.3517 54.8635 48.4292 54.4112C48.3715 54.3829 48.3134 54.3544 48.255 54.3258C47.3919 53.9023 46.4505 53.4404 45.4613 53.0122C43.3522 52.0993 40.9398 51.2995 38.3619 51.2995C35.7839 51.2995 33.3715 52.0993 31.2624 53.0122C30.2732 53.4404 29.3319 53.9023 28.4687 54.3258C28.4103 54.3544 28.3523 54.3829 28.2946 54.4112C27.372 54.8635 26.5554 55.2591 25.8209 55.5477C25.0781 55.8395 24.502 55.9874 24.0573 55.9993C23.6501 56.0101 23.3957 55.9087 23.19 55.7107C22.9514 55.4809 22.6757 55.0203 22.4679 54.1127C22.2621 53.2137 22.1433 51.9675 22.1433 50.2738C22.1433 43.5275 24.0233 37.4636 27.0108 33.1142C30.0014 28.7602 34.0316 26.2057 38.3619 26.2057C42.6921 26.2057 46.7223 28.7602 49.7129 33.1142C52.7004 37.4636 54.5804 43.5275 54.5804 50.2738Z" fill="white" stroke="#BAAA72" stroke-width="2"/>
<circle cx="38.6151" cy="19.3818" r="9.38176" fill="white" stroke="#BAAA72" stroke-width="2"/>
</svg>
