<svg width="36" height="48" viewBox="0 0 36 48" fill="none" xmlns="http://www.w3.org/2000/svg">
<path d="M34.3811 41.274C34.3811 42.9676 34.2623 44.2138 34.0565 45.1128C33.8487 46.0204 33.5731 46.481 33.3344 46.7108C33.1288 46.9088 32.8744 47.0102 32.4671 46.9994C32.0224 46.9875 31.4464 46.8397 30.7036 46.5478C29.969 46.2593 29.1524 45.8637 28.2299 45.4113C28.1722 45.383 28.1141 45.3545 28.0557 45.3259C27.1926 44.9024 26.2512 44.4405 25.2621 44.0124C23.153 43.0994 20.7406 42.2997 18.1626 42.2997C15.5846 42.2997 13.1722 43.0994 11.0631 44.0124C10.0739 44.4405 9.13261 44.9024 8.26945 45.3259C8.21104 45.3545 8.15298 45.383 8.09529 45.4113C7.17276 45.8637 6.35615 46.2593 5.62159 46.5478C4.87881 46.8397 4.30276 46.9875 3.85805 46.9994C3.45082 47.0102 3.19639 46.9088 2.99076 46.7108C2.75207 46.481 2.47646 46.0204 2.26866 45.1128C2.06284 44.2138 1.94406 42.9676 1.94406 41.274C1.94406 34.5276 3.824 28.4638 6.81153 24.1143C9.80216 19.7603 13.8323 17.2058 18.1626 17.2058C22.4928 17.2058 26.523 19.7603 29.5136 24.1143C32.5012 28.4638 34.3811 34.5276 34.3811 41.274Z" fill="white" stroke="#BAAA72" stroke-width="2"/>
<circle cx="18.4158" cy="10.3818" r="9.38176" fill="white" stroke="#BAAA72" stroke-width="2"/>
</svg>
