<svg width="89" height="57" viewBox="0 0 89 57" fill="none" xmlns="http://www.w3.org/2000/svg">
<path d="M52.236 41.2738C52.236 42.9675 52.1172 44.2137 51.9114 45.1127C51.7036 46.0203 51.428 46.4809 51.1893 46.7107C50.9837 46.9087 50.7292 47.0101 50.322 46.9993C49.8773 46.9874 49.3013 46.8395 48.5585 46.5477C47.8239 46.2591 47.0073 45.8635 46.0848 45.4112C46.0271 45.3829 45.969 45.3544 45.9106 45.3258C45.0475 44.9023 44.1061 44.4404 43.117 44.0122C41.0078 43.0993 38.5955 42.2995 36.0175 42.2995C33.4395 42.2995 31.0271 43.0993 28.918 44.0122C27.9288 44.4404 26.9875 44.9023 26.1243 45.3258C26.0659 45.3544 26.0079 45.3829 25.9502 45.4112C25.0276 45.8635 24.211 46.2591 23.4765 46.5477C22.7337 46.8395 22.1577 46.9874 21.7129 46.9993C21.3057 47.0101 21.0513 46.9087 20.8456 46.7107C20.607 46.4809 20.3314 46.0203 20.1235 45.1127C19.9177 44.2137 19.799 42.9675 19.799 41.2738C19.799 34.5275 21.6789 28.4636 24.6664 24.1142C27.657 19.7602 31.6872 17.2057 36.0175 17.2057C40.3477 17.2057 44.3779 19.7602 47.3685 24.1142C50.3561 28.4636 52.236 34.5275 52.236 41.2738Z" fill="white" stroke="#BAAA72" stroke-width="2"/>
<circle cx="36.2707" cy="10.3818" r="9.38176" fill="white" stroke="#BAAA72" stroke-width="2"/>
<path d="M34.236 50.2738C34.236 51.9675 34.1172 53.2137 33.9114 54.1127C33.7036 55.0203 33.428 55.4809 33.1893 55.7107C32.9837 55.9087 32.7292 56.0101 32.322 55.9993C31.8773 55.9874 31.3013 55.8395 30.5585 55.5477C29.8239 55.2591 29.0073 54.8635 28.0848 54.4112C28.0271 54.3829 27.969 54.3544 27.9106 54.3258C27.0475 53.9023 26.1061 53.4404 25.117 53.0122C23.0078 52.0993 20.5955 51.2995 18.0175 51.2995C15.4395 51.2995 13.0271 52.0993 10.918 53.0122C9.92884 53.4404 8.9875 53.9023 8.12434 54.3258C8.06593 54.3544 8.00787 54.3829 7.95018 54.4112C7.02765 54.8635 6.21104 55.2591 5.47647 55.5477C4.7337 55.8395 4.15765 55.9874 3.71294 55.9993C3.30571 56.0101 3.05128 55.9087 2.84564 55.7107C2.60696 55.4809 2.33135 55.0203 2.12355 54.1127C1.91772 53.2137 1.79895 51.9675 1.79895 50.2738C1.79895 43.5275 3.67889 37.4636 6.66642 33.1142C9.65705 28.7602 13.6872 26.2057 18.0175 26.2057C22.3477 26.2057 26.3779 28.7602 29.3685 33.1142C32.3561 37.4636 34.236 43.5275 34.236 50.2738Z" fill="white" stroke="#BAAA72" stroke-width="2"/>
<circle cx="18.2707" cy="19.3818" r="9.38176" fill="white" stroke="#BAAA72" stroke-width="2"/>
<path d="M87.236 41.2738C87.236 42.9675 87.1172 44.2137 86.9114 45.1127C86.7036 46.0203 86.428 46.4809 86.1893 46.7107C85.9837 46.9087 85.7292 47.0101 85.322 46.9993C84.8773 46.9874 84.3013 46.8395 83.5585 46.5477C82.8239 46.2591 82.0073 45.8635 81.0848 45.4112C81.0271 45.3829 80.969 45.3544 80.9106 45.3258C80.0475 44.9023 79.1061 44.4404 78.117 44.0122C76.0078 43.0993 73.5955 42.2995 71.0175 42.2995C68.4395 42.2995 66.0271 43.0993 63.918 44.0122C62.9288 44.4404 61.9875 44.9023 61.1243 45.3258C61.0659 45.3544 61.0079 45.3829 60.9502 45.4112C60.0276 45.8635 59.211 46.2591 58.4765 46.5477C57.7337 46.8395 57.1577 46.9874 56.7129 46.9993C56.3057 47.0101 56.0513 46.9087 55.8456 46.7107C55.607 46.4809 55.3314 46.0203 55.1235 45.1127C54.9177 44.2137 54.799 42.9675 54.799 41.2738C54.799 34.5275 56.6789 28.4636 59.6664 24.1142C62.657 19.7602 66.6872 17.2057 71.0175 17.2057C75.3477 17.2057 79.3779 19.7602 82.3685 24.1142C85.3561 28.4636 87.236 34.5275 87.236 41.2738Z" fill="white" stroke="#BAAA72" stroke-width="2"/>
<circle cx="71.2707" cy="10.3818" r="9.38176" fill="white" stroke="#BAAA72" stroke-width="2"/>
<path d="M69.236 50.2738C69.236 51.9675 69.1172 53.2137 68.9114 54.1127C68.7036 55.0203 68.428 55.4809 68.1893 55.7107C67.9837 55.9087 67.7292 56.0101 67.322 55.9993C66.8773 55.9874 66.3013 55.8395 65.5585 55.5477C64.8239 55.2591 64.0073 54.8635 63.0848 54.4112C63.0271 54.3829 62.969 54.3544 62.9106 54.3258C62.0475 53.9023 61.1061 53.4404 60.117 53.0122C58.0078 52.0993 55.5955 51.2995 53.0175 51.2995C50.4395 51.2995 48.0271 52.0993 45.918 53.0122C44.9288 53.4404 43.9875 53.9023 43.1243 54.3258C43.0659 54.3544 43.0079 54.3829 42.9502 54.4112C42.0276 54.8635 41.211 55.2591 40.4765 55.5477C39.7337 55.8395 39.1577 55.9874 38.7129 55.9993C38.3057 56.0101 38.0513 55.9087 37.8456 55.7107C37.607 55.4809 37.3314 55.0203 37.1235 54.1127C36.9177 53.2137 36.799 51.9675 36.799 50.2738C36.799 43.5275 38.6789 37.4636 41.6664 33.1142C44.657 28.7602 48.6872 26.2057 53.0175 26.2057C57.3477 26.2057 61.3779 28.7602 64.3685 33.1142C67.3561 37.4636 69.236 43.5275 69.236 50.2738Z" fill="white" stroke="#BAAA72" stroke-width="2"/>
<circle cx="53.2707" cy="19.3818" r="9.38176" fill="white" stroke="#BAAA72" stroke-width="2"/>
</svg>
