<svg width="56" height="45" viewBox="0 0 56 45" fill="none" xmlns="http://www.w3.org/2000/svg">
<path d="M27 6.00001L52 6V39.3738H4V6L27 6.00001Z" fill="#828FA3"/>
<path d="M13.4562 31.3738V18.3178H16.4082V21.3418L16.0722 20.8378C16.3122 19.8938 16.7922 19.1898 17.5122 18.7258C18.2322 18.2618 19.0802 18.0298 20.0562 18.0298C21.1282 18.0298 22.0722 18.3098 22.8882 18.8698C23.7042 19.4298 24.2322 20.1658 24.4722 21.0778L23.5842 21.1498C23.9842 20.1098 24.5842 19.3338 25.3842 18.8218C26.1842 18.2938 27.1042 18.0298 28.1442 18.0298C29.0722 18.0298 29.8962 18.2378 30.6162 18.6538C31.3522 19.0698 31.9282 19.6538 32.3442 20.4058C32.7602 21.1418 32.9682 21.9978 32.9682 22.9738V31.3738H29.8242V23.7178C29.8242 23.1418 29.7202 22.6458 29.5122 22.2298C29.3042 21.8138 29.0162 21.4938 28.6482 21.2698C28.2802 21.0298 27.8322 20.9098 27.3042 20.9098C26.8082 20.9098 26.3682 21.0298 25.9842 21.2698C25.6002 21.4938 25.3042 21.8138 25.0962 22.2298C24.8882 22.6458 24.7842 23.1418 24.7842 23.7178V31.3738H21.6402V23.7178C21.6402 23.1418 21.5362 22.6458 21.3282 22.2298C21.1202 21.8138 20.8242 21.4938 20.4402 21.2698C20.0722 21.0298 19.6322 20.9098 19.1202 20.9098C18.6242 20.9098 18.1842 21.0298 17.8002 21.2698C17.4162 21.4938 17.1202 21.8138 16.9122 22.2298C16.7042 22.6458 16.6002 23.1418 16.6002 23.7178V31.3738H13.4562ZM34.7161 25.9978V23.9818L38.1001 20.5018C38.6761 19.8778 39.1401 19.3738 39.4921 18.9898C39.8441 18.5898 40.0921 18.2458 40.2361 17.9578C40.3961 17.6698 40.4761 17.3898 40.4761 17.1178C40.4761 16.6538 40.3241 16.2938 40.0201 16.0378C39.7321 15.7658 39.3641 15.6298 38.9161 15.6298C38.4681 15.6298 38.0601 15.7658 37.6921 16.0378C37.3401 16.2938 37.0841 16.6858 36.9241 17.2138L34.6441 16.4938C34.7881 15.8218 35.0681 15.2458 35.4841 14.7658C35.9161 14.2858 36.4361 13.9178 37.0441 13.6618C37.6521 13.4058 38.2761 13.2778 38.9161 13.2778C39.7481 13.2778 40.4761 13.4298 41.1001 13.7338C41.7401 14.0218 42.2281 14.4298 42.5641 14.9578C42.9161 15.4858 43.0921 16.1018 43.0921 16.8058C43.0921 17.5418 42.8921 18.2218 42.4921 18.8458C42.1081 19.4698 41.5801 20.1338 40.9081 20.8378L38.0521 23.7898H43.2361V25.9978H34.7161Z" fill="black"/>
<path d="M56 6.37384L46 0.600338L46 12.1473L56 6.37384ZM4 7.37384L47 7.37384L47 5.37384L4 5.37384L4 7.37384Z" fill="#BAAA72"/>
<path d="M0 38.3738L10 44.1473V32.6003L0 38.3738ZM52 37.3738L9 37.3738V39.3738L52 39.3738V37.3738Z" fill="#BAAA72"/>
<line x1="5" y1="7.37384" x2="5" y2="33.3738" stroke="#BAAA72" stroke-width="2"/>
<line x1="51" y1="13.3738" x2="51" y2="39.3738" stroke="#BAAA72" stroke-width="2"/>
</svg>
