<svg width="110" height="101" viewBox="0 0 110 101" fill="none" xmlns="http://www.w3.org/2000/svg">
<circle cx="49.4557" cy="49.1006" r="23" transform="rotate(-45 49.4557 49.1006)" fill="#828FA3" stroke="#BAAA72" stroke-width="2" stroke-dasharray="4 4"/>
<line x1="48.9557" y1="97.6495" x2="48.9557" y2="0.551626" stroke="#BAAA72" stroke-dasharray="2 2"/>
<line x1="98.0046" y1="49.6006" x2="0.906729" y2="49.6006" stroke="#BAAA72" stroke-dasharray="2 2"/>
<path d="M51.152 18V6.08003H52.848L59.408 14.912L58.528 15.088V6.08003H60.704V18H58.992L52.528 9.10403L53.328 8.92803V18H51.152ZM62.6394 14.69V13.94H67.1394V14.69H62.6394ZM62.6394 17.04V16.29H67.1394V17.04H62.6394ZM71.5938 18.12C71.0072 18.12 70.4905 17.96 70.0438 17.64C69.6038 17.3134 69.2605 16.8634 69.0138 16.29C68.7672 15.71 68.6438 15.0367 68.6438 14.27C68.6438 13.5034 68.7672 12.8334 69.0138 12.26C69.2605 11.68 69.6038 11.23 70.0438 10.91C70.4838 10.59 70.9972 10.43 71.5838 10.43C72.1705 10.43 72.6838 10.59 73.1238 10.91C73.5638 11.23 73.9072 11.68 74.1538 12.26C74.4005 12.8334 74.5238 13.5034 74.5238 14.27C74.5238 15.0367 74.4005 15.71 74.1538 16.29C73.9138 16.87 73.5738 17.32 73.1338 17.64C72.6938 17.96 72.1805 18.12 71.5938 18.12ZM71.5938 17.37C72.0205 17.37 72.3938 17.24 72.7138 16.98C73.0338 16.72 73.2838 16.36 73.4638 15.9C73.6438 15.4334 73.7338 14.89 73.7338 14.27C73.7338 13.65 73.6438 13.11 73.4638 12.65C73.2838 12.1834 73.0338 11.8234 72.7138 11.57C72.3938 11.31 72.0172 11.18 71.5838 11.18C71.1572 11.18 70.7838 11.31 70.4638 11.57C70.1438 11.8234 69.8938 12.1834 69.7138 12.65C69.5338 13.11 69.4438 13.65 69.4438 14.27C69.4438 14.8834 69.5338 15.4234 69.7138 15.89C69.8938 16.3567 70.1438 16.72 70.4638 16.98C70.7905 17.24 71.1672 17.37 71.5938 17.37ZM77.658 13.6C77.358 13.6 77.0847 13.5334 76.838 13.4C76.598 13.26 76.408 13.07 76.268 12.83C76.128 12.59 76.058 12.32 76.058 12.02C76.058 11.72 76.128 11.45 76.268 11.21C76.408 10.97 76.598 10.78 76.838 10.64C77.0847 10.5 77.358 10.43 77.658 10.43C77.9647 10.43 78.238 10.5 78.478 10.64C78.718 10.78 78.908 10.97 79.048 11.21C79.188 11.45 79.258 11.72 79.258 12.02C79.258 12.32 79.188 12.59 79.048 12.83C78.908 13.07 78.718 13.26 78.478 13.4C78.238 13.5334 77.9647 13.6 77.658 13.6ZM77.648 12.98C77.9147 12.98 78.1447 12.8934 78.338 12.72C78.5314 12.54 78.628 12.3067 78.628 12.02C78.628 11.7267 78.5314 11.4934 78.338 11.32C78.1447 11.14 77.9147 11.05 77.648 11.05C77.3814 11.05 77.1547 11.14 76.968 11.32C76.7814 11.4934 76.688 11.7267 76.688 12.02C76.688 12.3067 76.7814 12.54 76.968 12.72C77.1547 12.8934 77.3814 12.98 77.648 12.98Z" fill="#828FA3"/>
<path d="M55.408 98.192C54.6507 98.192 53.9467 98.0533 53.296 97.776C52.656 97.4987 52.1013 97.1147 51.632 96.624C51.1733 96.1227 50.8373 95.5413 50.624 94.88L52.432 94.096C52.72 94.7787 53.136 95.3173 53.68 95.712C54.224 96.096 54.8373 96.288 55.52 96.288C55.904 96.288 56.2347 96.2293 56.512 96.112C56.8 95.984 57.0187 95.8133 57.168 95.6C57.328 95.3867 57.408 95.1307 57.408 94.832C57.408 94.48 57.3013 94.192 57.088 93.968C56.8853 93.7333 56.576 93.552 56.16 93.424L53.872 92.688C52.944 92.4 52.2453 91.968 51.776 91.392C51.3067 90.816 51.072 90.1387 51.072 89.36C51.072 88.6773 51.2373 88.0747 51.568 87.552C51.9093 87.0293 52.3787 86.624 52.976 86.336C53.584 86.0373 54.2773 85.888 55.056 85.888C55.7707 85.888 56.4267 86.016 57.024 86.272C57.6213 86.5173 58.1333 86.864 58.56 87.312C58.9973 87.7493 59.3227 88.2667 59.536 88.864L57.744 89.664C57.5093 89.0667 57.1573 88.608 56.688 88.288C56.2187 87.9573 55.6747 87.792 55.056 87.792C54.6933 87.792 54.3733 87.856 54.096 87.984C53.8187 88.1013 53.6 88.272 53.44 88.496C53.2907 88.7093 53.216 88.9653 53.216 89.264C53.216 89.5947 53.3227 89.888 53.536 90.144C53.7493 90.3893 54.0747 90.5813 54.512 90.72L56.704 91.408C57.6533 91.7173 58.3627 92.144 58.832 92.688C59.312 93.232 59.552 93.904 59.552 94.704C59.552 95.3867 59.376 95.9893 59.024 96.512C58.672 97.0347 58.1867 97.4453 57.568 97.744C56.9493 98.0427 56.2293 98.192 55.408 98.192ZM61.1394 94.69V93.94H65.6394V94.69H61.1394ZM61.1394 97.04V96.29H65.6394V97.04H61.1394ZM68.2338 98V91.25H66.8338V90.55H69.0338V98H68.2338ZM73.2748 98.12C72.7948 98.12 72.3648 98.0233 71.9848 97.83C71.6114 97.63 71.3148 97.36 71.0948 97.02C70.8814 96.6733 70.7748 96.2833 70.7748 95.85C70.7748 95.3767 70.9081 94.9533 71.1748 94.58C71.4481 94.2067 71.8148 93.9467 72.2748 93.8V94.01C71.9214 93.8567 71.6481 93.63 71.4548 93.33C71.2614 93.0233 71.1648 92.6967 71.1648 92.35C71.1648 91.9833 71.2581 91.6567 71.4448 91.37C71.6314 91.0833 71.8814 90.8567 72.1948 90.69C72.5148 90.5167 72.8748 90.43 73.2748 90.43C73.6814 90.43 74.0414 90.5133 74.3548 90.68C74.6681 90.84 74.9148 91.0667 75.0948 91.36C75.2814 91.6467 75.3748 91.9767 75.3748 92.35C75.3748 92.7233 75.2748 93.0567 75.0748 93.35C74.8748 93.6367 74.6114 93.8567 74.2848 94.01L74.2748 93.8C74.7348 93.9467 75.0981 94.2067 75.3648 94.58C75.6381 94.9533 75.7748 95.3767 75.7748 95.85C75.7748 96.2833 75.6648 96.6733 75.4448 97.02C75.2314 97.36 74.9348 97.63 74.5548 97.83C74.1814 98.0233 73.7548 98.12 73.2748 98.12ZM73.2748 97.42C73.6148 97.42 73.9114 97.3567 74.1648 97.23C74.4181 97.0967 74.6148 96.9133 74.7548 96.68C74.9014 96.44 74.9748 96.1633 74.9748 95.85C74.9748 95.5367 74.9014 95.2633 74.7548 95.03C74.6148 94.79 74.4181 94.6067 74.1648 94.48C73.9114 94.3467 73.6148 94.28 73.2748 94.28C72.9348 94.28 72.6348 94.3467 72.3748 94.48C72.1214 94.6067 71.9248 94.79 71.7848 95.03C71.6448 95.2633 71.5748 95.5367 71.5748 95.85C71.5748 96.1633 71.6448 96.44 71.7848 96.68C71.9248 96.9133 72.1214 97.0967 72.3748 97.23C72.6348 97.3567 72.9348 97.42 73.2748 97.42ZM73.2748 93.58C73.5214 93.58 73.7414 93.53 73.9348 93.43C74.1281 93.3233 74.2814 93.18 74.3948 93C74.5148 92.8133 74.5748 92.5967 74.5748 92.35C74.5748 92.1033 74.5148 91.89 74.3948 91.71C74.2814 91.53 74.1281 91.39 73.9348 91.29C73.7414 91.1833 73.5214 91.13 73.2748 91.13C73.0281 91.13 72.8048 91.1833 72.6048 91.29C72.4114 91.39 72.2548 91.53 72.1348 91.71C72.0214 91.89 71.9648 92.1033 71.9648 92.35C71.9648 92.5967 72.0214 92.8133 72.1348 93C72.2548 93.18 72.4114 93.3233 72.6048 93.43C72.8048 93.53 73.0281 93.58 73.2748 93.58ZM80.0841 98.12C79.4974 98.12 78.9807 97.96 78.5341 97.64C78.0941 97.3133 77.7507 96.8633 77.5041 96.29C77.2574 95.71 77.1341 95.0367 77.1341 94.27C77.1341 93.5033 77.2574 92.8333 77.5041 92.26C77.7507 91.68 78.0941 91.23 78.5341 90.91C78.9741 90.59 79.4874 90.43 80.0741 90.43C80.6607 90.43 81.1741 90.59 81.6141 90.91C82.0541 91.23 82.3974 91.68 82.6441 92.26C82.8907 92.8333 83.0141 93.5033 83.0141 94.27C83.0141 95.0367 82.8907 95.71 82.6441 96.29C82.4041 96.87 82.0641 97.32 81.6241 97.64C81.1841 97.96 80.6707 98.12 80.0841 98.12ZM80.0841 97.37C80.5107 97.37 80.8841 97.24 81.2041 96.98C81.5241 96.72 81.7741 96.36 81.9541 95.9C82.1341 95.4333 82.2241 94.89 82.2241 94.27C82.2241 93.65 82.1341 93.11 81.9541 92.65C81.7741 92.1833 81.5241 91.8233 81.2041 91.57C80.8841 91.31 80.5074 91.18 80.0741 91.18C79.6474 91.18 79.2741 91.31 78.9541 91.57C78.6341 91.8233 78.3841 92.1833 78.2041 92.65C78.0241 93.11 77.9341 93.65 77.9341 94.27C77.9341 94.8833 78.0241 95.4233 78.2041 95.89C78.3841 96.3567 78.6341 96.72 78.9541 96.98C79.2807 97.24 79.6574 97.37 80.0841 97.37ZM86.1483 93.6C85.8483 93.6 85.5749 93.5333 85.3283 93.4C85.0883 93.26 84.8983 93.07 84.7583 92.83C84.6183 92.59 84.5483 92.32 84.5483 92.02C84.5483 91.72 84.6183 91.45 84.7583 91.21C84.8983 90.97 85.0883 90.78 85.3283 90.64C85.5749 90.5 85.8483 90.43 86.1483 90.43C86.4549 90.43 86.7283 90.5 86.9683 90.64C87.2083 90.78 87.3983 90.97 87.5383 91.21C87.6783 91.45 87.7483 91.72 87.7483 92.02C87.7483 92.32 87.6783 92.59 87.5383 92.83C87.3983 93.07 87.2083 93.26 86.9683 93.4C86.7283 93.5333 86.4549 93.6 86.1483 93.6ZM86.1383 92.98C86.4049 92.98 86.6349 92.8933 86.8283 92.72C87.0216 92.54 87.1183 92.3067 87.1183 92.02C87.1183 91.7267 87.0216 91.4933 86.8283 91.32C86.6349 91.14 86.4049 91.05 86.1383 91.05C85.8716 91.05 85.6449 91.14 85.4583 91.32C85.2716 91.4933 85.1783 91.7267 85.1783 92.02C85.1783 92.3067 85.2716 92.54 85.4583 92.72C85.6449 92.8933 85.8716 92.98 86.1383 92.98Z" fill="#828FA3"/>
<path d="M92.5621 64.1513C91.6874 64.1513 90.8714 63.9967 90.1141 63.6873C89.3567 63.378 88.6954 62.946 88.1301 62.3913C87.5647 61.8367 87.1221 61.186 86.8021 60.4393C86.4927 59.682 86.3381 58.866 86.3381 57.9913C86.3381 57.106 86.4927 56.29 86.8021 55.5433C87.1114 54.7967 87.5487 54.146 88.1141 53.5913C88.6794 53.0367 89.3407 52.61 90.0981 52.3113C90.8554 52.002 91.6767 51.8473 92.5621 51.8473C93.4474 51.8473 94.2687 52.002 95.0261 52.3113C95.7834 52.6207 96.4447 53.0527 97.0101 53.6073C97.5754 54.1513 98.0127 54.7967 98.3221 55.5433C98.6421 56.29 98.8021 57.106 98.8021 57.9913C98.8021 58.866 98.6421 59.682 98.3221 60.4393C98.0021 61.186 97.5594 61.8367 96.9941 62.3913C96.4287 62.946 95.7674 63.378 95.0101 63.6873C94.2634 63.9967 93.4474 64.1513 92.5621 64.1513ZM92.5621 62.1673C93.1487 62.1673 93.6874 62.066 94.1781 61.8633C94.6687 61.65 95.0954 61.3567 95.4581 60.9833C95.8314 60.61 96.1141 60.1673 96.3061 59.6553C96.5087 59.1433 96.6101 58.5887 96.6101 57.9913C96.6101 57.394 96.5087 56.8447 96.3061 56.3433C96.1141 55.8313 95.8314 55.3887 95.4581 55.0153C95.0954 54.6313 94.6687 54.338 94.1781 54.1353C93.6874 53.9327 93.1487 53.8313 92.5621 53.8313C91.9861 53.8313 91.4527 53.9327 90.9621 54.1353C90.4714 54.338 90.0394 54.6313 89.6661 55.0153C89.3034 55.3887 89.0207 55.8313 88.8181 56.3433C88.6154 56.8447 88.5141 57.394 88.5141 57.9913C88.5141 58.5887 88.6154 59.1433 88.8181 59.6553C89.0207 60.1673 89.3034 60.61 89.6661 60.9833C90.0394 61.3567 90.4714 61.65 90.9621 61.8633C91.4527 62.066 91.9861 62.1673 92.5621 62.1673Z" fill="#828FA3"/>
<path d="M4.06124 45.5746L0.861242 33.6546H3.19724L5.70924 43.8146H5.10124L7.72524 33.6546H9.98124L12.5892 43.8146H11.9812L14.4932 33.6546H16.8292L13.6292 45.5746H11.1332L8.49324 35.6866H9.19724L6.55724 45.5746H4.06124Z" fill="#828FA3"/>
</svg>
