<svg width="52" height="52" viewBox="0 0 52 52" fill="none" xmlns="http://www.w3.org/2000/svg">
<circle cx="26" cy="26" r="12" transform="rotate(-44.7536 26 26)" fill="white" stroke="#828FA3" stroke-width="2"/>
<path d="M7.69445 7.5363L15.9629 10.956L11.0429 15.8339L7.69445 7.5363Z" fill="#828FA3"/>
<path d="M44.3056 44.4637L36.0371 41.044L40.9571 36.1661L44.3056 44.4637Z" fill="#828FA3"/>
<path d="M7.5363 44.3054L10.956 36.0369L15.8339 40.9569L7.5363 44.3054Z" fill="#828FA3"/>
<path d="M44.4637 7.69457L41.044 15.9631L36.1661 11.0431L44.4637 7.69457Z" fill="#828FA3"/>
<path d="M26 0L29.4641 8.25L22.5359 8.25L26 0Z" fill="#828FA3"/>
<path d="M26 52L22.5359 43.75H29.4641L26 52Z" fill="#828FA3"/>
<path d="M0 26L8.25 22.5359V29.4641L0 26Z" fill="#828FA3"/>
<path d="M52 26L43.75 29.4641V22.5359L52 26Z" fill="#828FA3"/>
<path d="M26.79 34.264C25.7193 34.264 24.7293 34.0587 23.82 33.648C22.9107 33.2373 22.1187 32.658 21.444 31.91C20.784 31.1473 20.2707 30.2527 19.904 29.226C19.5373 28.1847 19.354 27.0407 19.354 25.794C19.354 24.5473 19.53 23.4107 19.882 22.384C20.2487 21.3573 20.762 20.47 21.422 19.722C22.0967 18.9593 22.8887 18.3727 23.798 17.962C24.7073 17.5513 25.712 17.346 26.812 17.346C28.2933 17.346 29.5987 17.7347 30.728 18.512C31.8573 19.2747 32.642 20.3233 33.082 21.658L30.376 22.692C30.0827 21.856 29.6207 21.2033 28.99 20.734C28.3593 20.2647 27.626 20.03 26.79 20.03C25.9393 20.03 25.1767 20.2793 24.502 20.778C23.8273 21.2767 23.2993 21.9587 22.918 22.824C22.5367 23.6747 22.346 24.6647 22.346 25.794C22.346 26.9233 22.5293 27.928 22.896 28.808C23.2773 29.6733 23.798 30.348 24.458 30.832C25.1327 31.316 25.91 31.558 26.79 31.558C27.626 31.558 28.3593 31.3233 28.99 30.854C29.6207 30.3847 30.0827 29.7393 30.376 28.918L33.082 29.952C32.7887 30.8467 32.334 31.6167 31.718 32.262C31.1167 32.8927 30.3907 33.384 29.54 33.736C28.704 34.088 27.7873 34.264 26.79 34.264ZM17.55 28.302V26.454H27.34V28.302H17.55ZM17.55 25.134V23.286H27.34V25.134H17.55Z" fill="#BAAA72"/>
</svg>
