<svg width="52" height="52" viewBox="0 0 52 52" fill="none" xmlns="http://www.w3.org/2000/svg">
<circle cx="26.3846" cy="26.0791" r="12" transform="rotate(-44.7536 26.3846 26.0791)" fill="white" stroke="#828FA3" stroke-width="2"/>
<path d="M7.69445 7.5363L15.9629 10.956L11.0429 15.8339L7.69445 7.5363Z" fill="#828FA3"/>
<path d="M44.3056 44.4637L36.0371 41.044L40.9571 36.1661L44.3056 44.4637Z" fill="#828FA3"/>
<path d="M7.5363 44.3054L10.956 36.0369L15.8339 40.9569L7.5363 44.3054Z" fill="#828FA3"/>
<path d="M44.4637 7.69457L41.044 15.9631L36.1661 11.0431L44.4637 7.69457Z" fill="#828FA3"/>
<path d="M26 0L29.4641 8.25L22.5359 8.25L26 0Z" fill="#828FA3"/>
<path d="M26 52L22.5359 43.75H29.4641L26 52Z" fill="#828FA3"/>
<path d="M0 26L8.25 22.5359V29.4641L0 26Z" fill="#828FA3"/>
<path d="M52 26L43.75 29.4641V22.5359L52 26Z" fill="#828FA3"/>
<path d="M16.976 31V22.296H18.944V24.312L18.72 23.976C18.88 23.3467 19.2 22.8773 19.68 22.568C20.16 22.2587 20.7253 22.104 21.376 22.104C22.0907 22.104 22.72 22.2907 23.264 22.664C23.808 23.0373 24.16 23.528 24.32 24.136L23.728 24.184C23.9947 23.4907 24.3947 22.9733 24.928 22.632C25.4613 22.28 26.0747 22.104 26.768 22.104C27.3867 22.104 27.936 22.2427 28.416 22.52C28.9067 22.7973 29.2907 23.1867 29.568 23.688C29.8453 24.1787 29.984 24.7493 29.984 25.4V31H27.888V25.896C27.888 25.512 27.8187 25.1813 27.68 24.904C27.5413 24.6267 27.3493 24.4133 27.104 24.264C26.8587 24.104 26.56 24.024 26.208 24.024C25.8773 24.024 25.584 24.104 25.328 24.264C25.072 24.4133 24.8747 24.6267 24.736 24.904C24.5973 25.1813 24.528 25.512 24.528 25.896V31H22.432V25.896C22.432 25.512 22.3627 25.1813 22.224 24.904C22.0853 24.6267 21.888 24.4133 21.632 24.264C21.3867 24.104 21.0933 24.024 20.752 24.024C20.4213 24.024 20.128 24.104 19.872 24.264C19.616 24.4133 19.4187 24.6267 19.28 24.904C19.1413 25.1813 19.072 25.512 19.072 25.896V31H16.976ZM31.1493 27.416V26.072L33.4053 23.752C33.7893 23.336 34.0986 23 34.3333 22.744C34.5679 22.4773 34.7333 22.248 34.8293 22.056C34.9359 21.864 34.9893 21.6773 34.9893 21.496C34.9893 21.1867 34.8879 20.9467 34.6853 20.776C34.4933 20.5947 34.2479 20.504 33.9493 20.504C33.6506 20.504 33.3786 20.5947 33.1332 20.776C32.8986 20.9467 32.7279 21.208 32.6213 21.56L31.1013 21.08C31.1973 20.632 31.3839 20.248 31.6613 19.928C31.9493 19.608 32.2959 19.3627 32.7013 19.192C33.1066 19.0213 33.5226 18.936 33.9493 18.936C34.5039 18.936 34.9893 19.0373 35.4053 19.24C35.8319 19.432 36.1573 19.704 36.3813 20.056C36.6159 20.408 36.7333 20.8187 36.7333 21.288C36.7333 21.7787 36.5999 22.232 36.3333 22.648C36.0773 23.064 35.7253 23.5067 35.2773 23.976L33.3733 25.944H36.8293V27.416H31.1493Z" fill="#BAAA72"/>
</svg>
