<svg width="52" height="52" viewBox="0 0 52 52" fill="none" xmlns="http://www.w3.org/2000/svg">
<circle cx="26.3846" cy="26.0791" r="12" transform="rotate(-44.7536 26.3846 26.0791)" fill="white" stroke="#828FA3" stroke-width="2"/>
<path d="M7.69445 7.5363L15.9629 10.956L11.0429 15.8339L7.69445 7.5363Z" fill="#828FA3"/>
<path d="M44.3056 44.4637L36.0371 41.044L40.9571 36.1661L44.3056 44.4637Z" fill="#828FA3"/>
<path d="M7.5363 44.3054L10.956 36.0369L15.8339 40.9569L7.5363 44.3054Z" fill="#828FA3"/>
<path d="M44.4637 7.69457L41.044 15.9631L36.1661 11.0431L44.4637 7.69457Z" fill="#828FA3"/>
<path d="M26 0L29.4641 8.25L22.5359 8.25L26 0Z" fill="#828FA3"/>
<path d="M26 52L22.5359 43.75H29.4641L26 52Z" fill="#828FA3"/>
<path d="M0 26L8.25 22.5359V29.4641L0 26Z" fill="#828FA3"/>
<path d="M52 26L43.75 29.4641V22.5359L52 26Z" fill="#828FA3"/>
<path d="M25.424 32.288C24.512 32.288 23.72 32.136 23.048 31.832C22.376 31.528 21.856 31.096 21.488 30.536C21.12 29.96 20.936 29.296 20.936 28.544C20.936 27.824 21.096 27.184 21.416 26.624C21.736 26.048 22.232 25.568 22.904 25.184C23.576 24.8 24.424 24.528 25.448 24.368L29.72 23.672V26.072L26.048 26.696C25.424 26.808 24.96 27.008 24.656 27.296C24.352 27.584 24.2 27.96 24.2 28.424C24.2 28.872 24.368 29.232 24.704 29.504C25.056 29.76 25.488 29.888 26 29.888C26.656 29.888 27.232 29.752 27.728 29.48C28.24 29.192 28.632 28.8 28.904 28.304C29.192 27.808 29.336 27.264 29.336 26.672V23.312C29.336 22.752 29.112 22.288 28.664 21.92C28.232 21.536 27.656 21.344 26.936 21.344C26.264 21.344 25.664 21.528 25.136 21.896C24.624 22.248 24.248 22.72 24.008 23.312L21.44 22.064C21.696 21.376 22.096 20.784 22.64 20.288C23.2 19.776 23.856 19.376 24.608 19.088C25.36 18.8 26.176 18.656 27.056 18.656C28.128 18.656 29.072 18.856 29.888 19.256C30.704 19.64 31.336 20.184 31.784 20.888C32.248 21.576 32.48 22.384 32.48 23.312V32H29.504V29.768L30.176 29.72C29.84 30.28 29.44 30.752 28.976 31.136C28.512 31.504 27.984 31.792 27.392 32C26.8 32.192 26.144 32.288 25.424 32.288Z" fill="#BAAA72"/>
</svg>
