<svg width="52" height="52" viewBox="0 0 52 52" fill="none" xmlns="http://www.w3.org/2000/svg">
<circle cx="25.9998" cy="26" r="13" transform="rotate(-44.7536 25.9998 26)" fill="#828FA3"/>
<path d="M7.69408 7.5363L15.9626 10.956L11.0426 15.8339L7.69408 7.5363Z" fill="#828FA3"/>
<path d="M44.3059 44.4637L36.0374 41.044L40.9574 36.1661L44.3059 44.4637Z" fill="#828FA3"/>
<path d="M7.5363 44.3056L10.956 36.0371L15.8339 40.9571L7.5363 44.3056Z" fill="#828FA3"/>
<path d="M44.4637 7.69445L41.044 15.9629L36.1661 11.0429L44.4637 7.69445Z" fill="#828FA3"/>
<path d="M26 0L29.4641 8.25L22.5359 8.25L26 0Z" fill="#828FA3"/>
<path d="M26 52L22.5359 43.75H29.4641L26 52Z" fill="#828FA3"/>
<path d="M0 26L8.25 22.5359V29.4641L0 26Z" fill="#828FA3"/>
<path d="M52 26L43.75 29.4641V22.5359L52 26Z" fill="#828FA3"/>
<path d="M26.68 35.288C25.512 35.288 24.432 35.064 23.44 34.616C22.448 34.168 21.584 33.536 20.848 32.72C20.128 31.888 19.568 30.912 19.168 29.792C18.768 28.656 18.568 27.408 18.568 26.048C18.568 24.688 18.76 23.448 19.144 22.328C19.544 21.208 20.104 20.24 20.824 19.424C21.56 18.592 22.424 17.952 23.416 17.504C24.408 17.056 25.504 16.832 26.704 16.832C28.32 16.832 29.744 17.256 30.976 18.104C32.208 18.936 33.064 20.08 33.544 21.536L30.592 22.664C30.272 21.752 29.768 21.04 29.08 20.528C28.392 20.016 27.592 19.76 26.68 19.76C25.752 19.76 24.92 20.032 24.184 20.576C23.448 21.12 22.872 21.864 22.456 22.808C22.04 23.736 21.832 24.816 21.832 26.048C21.832 27.28 22.032 28.376 22.432 29.336C22.848 30.28 23.416 31.016 24.136 31.544C24.872 32.072 25.72 32.336 26.68 32.336C27.592 32.336 28.392 32.08 29.08 31.568C29.768 31.056 30.272 30.352 30.592 29.456L33.544 30.584C33.224 31.56 32.728 32.4 32.056 33.104C31.4 33.792 30.608 34.328 29.68 34.712C28.768 35.096 27.768 35.288 26.68 35.288ZM16.6 28.784V26.768H27.28V28.784H16.6ZM16.6 25.328V23.312H27.28V25.328H16.6Z" fill="#E0E5F0"/>
</svg>
