<svg width="115" height="35" viewBox="0 0 115 35" fill="none" xmlns="http://www.w3.org/2000/svg">
<path d="M60 0H72L79.5 15H60V0Z" fill="#828FA3"/>
<path d="M78 0H88.1309C88.6853 0 89.2148 0.230093 89.593 0.635364L103 15H85.5L78 0Z" fill="#828FA3"/>
<path d="M36 0H26.3334C25.7649 0 25.2232 0.24195 24.8438 0.665366L12 15H28.8L36 0Z" fill="#828FA3"/>
<path d="M42 0H55V15H35.5L42 0Z" fill="#828FA3"/>
<path d="M33 20H55V35H26L33 20Z" fill="#828FA3"/>
<path d="M60 20H82L89.5 35H60V20Z" fill="#828FA3"/>
<path d="M7.43014 20H27L20.1506 35C20.1506 35 12.8118 35 7.43014 35C2.04843 35 2.04843 34.5 1.55918 34C1.06993 33.5 -1.3763 32 1.06994 27.5C3.51617 23 7.43014 20 7.43014 20Z" fill="#828FA3"/>
<path d="M107.57 20H88L94.8494 35C94.8494 35 102.188 35 107.57 35C112.952 35 112.952 34.5 113.441 34C113.93 33.5 116.376 32 113.93 27.5C111.484 23 107.57 20 107.57 20Z" fill="#828FA3"/>
</svg>
