<svg width="70" height="54" viewBox="0 0 70 54" fill="none" xmlns="http://www.w3.org/2000/svg">
<path d="M23 21.0853L46 1.31856L69 21.0853V53H23V21.0853Z" fill="#828FA3" stroke="#BAAA72" stroke-width="2"/>
<path d="M22.4348 0H26.9218L29.7261 5.57143H22.4348V0Z" fill="#BAAA72"/>
<path d="M29.1652 0H32.4131C32.9651 0 33.4926 0.228184 33.8706 0.630508L38.513 5.57143H31.9695L29.1652 0Z" fill="#BAAA72"/>
<path d="M13.4608 0H10.4017C9.83549 0 9.29582 0.239995 8.91659 0.660436L4.4869 5.57143H10.7686L13.4608 0Z" fill="#BAAA72"/>
<path d="M15.7044 0H20.5652V5.57143H13.2739L15.7044 0Z" fill="#BAAA72"/>
<path d="M12.3391 7.42847H20.5652V12.9999H9.72168L12.3391 7.42847Z" fill="#BAAA72"/>
<path d="M22.4348 7.42847H30.6609L33.4652 12.9999H22.4348V7.42847Z" fill="#BAAA72"/>
<path d="M2.77823 7.42847H10.0957L7.53455 12.9999C7.53455 12.9999 4.79052 12.9999 2.77823 12.9999C0.765935 12.9999 0.765936 12.8142 0.582999 12.6285C0.400062 12.4428 -0.514615 11.8856 0.400063 10.2142C1.31474 8.54275 2.77823 7.42847 2.77823 7.42847Z" fill="#BAAA72"/>
<path d="M40.2218 7.42847H32.9043L35.4654 12.9999C35.4654 12.9999 38.2095 12.9999 40.2218 12.9999C42.2341 12.9999 42.2341 12.8142 42.417 12.6285C42.5999 12.4428 43.5146 11.8856 42.5999 10.2142C41.6853 8.54275 40.2218 7.42847 40.2218 7.42847Z" fill="#BAAA72"/>
<path d="M41 23L30.2447 27.2018L39.2612 34.4153L41 23ZM56.4999 22.4999L55.8893 23.2919L55.8961 23.2971L55.903 23.3022L56.4999 22.4999ZM56.9999 44.5001L56.4344 43.6754L56.9999 44.5001ZM63 33.5L62.0001 33.5135L62.0001 33.5135L63 33.5ZM42 44.5001L41.4528 45.3371L42 44.5001ZM36 34L35.0007 34.0382L36 34ZM61 27L60.1476 27.5228L61 27ZM61.5 39.4999L62.3877 39.9602L62.3877 39.9602L61.5 39.4999ZM49.5 46.9999L49.5 47.9999L49.5 46.9999ZM37.5 39.9999L36.6278 40.4891L37.5 39.9999ZM37 27.9999L36.0842 27.5983L37 27.9999ZM43.8424 14.0033L55.8893 23.2919L57.1105 21.708L45.0637 12.4194L43.8424 14.0033ZM56.4999 22.4999C55.903 23.3022 55.9029 23.3022 55.9028 23.3021C55.9028 23.3021 55.9027 23.3021 55.9027 23.3021C55.9027 23.302 55.9027 23.3021 55.9028 23.3021C55.9029 23.3022 55.9033 23.3025 55.9038 23.3029C55.9049 23.3036 55.9067 23.305 55.9092 23.3069C55.9143 23.3107 55.9223 23.3168 55.9332 23.3249C55.9548 23.3413 55.9876 23.3662 56.0303 23.3991C56.1158 23.4649 56.2408 23.5622 56.3955 23.6859C56.7053 23.9338 57.1316 24.2859 57.5963 24.7012C58.547 25.5507 59.5785 26.5951 60.1476 27.5228L61.8524 26.4771C61.122 25.2863 59.9036 24.0807 58.929 23.2099C58.4311 22.765 57.976 22.3892 57.6451 22.1244C57.4794 21.9918 57.3442 21.8865 57.2496 21.8137C57.2023 21.7773 57.165 21.749 57.1392 21.7295C57.1262 21.7197 57.1161 21.7121 57.109 21.7068C57.1055 21.7041 57.1027 21.702 57.1006 21.7005C57.0996 21.6997 57.0988 21.6991 57.0982 21.6986C57.0978 21.6984 57.0976 21.6982 57.0974 21.698C57.0972 21.698 57.0971 21.6979 57.0971 21.6978C57.0969 21.6977 57.0968 21.6977 56.4999 22.4999ZM60.1476 27.5228C60.8213 28.6212 61.267 29.5048 61.5545 30.4068C61.8398 31.3022 61.9831 32.2598 62.0001 33.5135L63.9999 33.4864C63.9809 32.0846 63.8185 30.9241 63.46 29.7994C63.1036 28.6812 62.5673 27.6427 61.8524 26.4771L60.1476 27.5228ZM62.0001 33.5135C62.0302 35.7371 61.6616 37.0161 60.6123 39.0395L62.3877 39.9602C63.5622 37.6955 64.0352 36.0928 63.9999 33.4864L62.0001 33.5135ZM60.6123 39.0395C59.4872 41.2088 58.4816 42.2715 56.4344 43.6754L57.5655 45.3248C59.8514 43.7572 61.0938 42.4551 62.3877 39.9602L60.6123 39.0395ZM56.4344 43.6754C55.1971 44.5239 54.1771 45.0946 53.1248 45.4601C52.0805 45.8229 50.9566 45.9999 49.5 45.9999L49.5 47.9999C51.1307 47.9999 52.4837 47.8 53.781 47.3494C55.0703 46.9016 56.2567 46.2224 57.5655 45.3248L56.4344 43.6754ZM49.5 45.9999C48.0515 45.9999 46.938 45.811 45.8956 45.4411C44.8408 45.0669 43.8155 44.4924 42.5473 43.6632L41.4528 45.3371C42.7685 46.1974 43.9495 46.8728 45.2269 47.326C46.5167 47.7836 47.8611 47.9999 49.5 47.9999L49.5 45.9999ZM42.5473 43.6632C40.5321 42.3456 39.4768 41.4798 38.3721 39.5106L36.6278 40.4891C37.9551 42.8551 39.3076 43.9345 41.4528 45.3371L42.5473 43.6632ZM38.3721 39.5106C37.297 37.5939 37.0882 36.2891 36.9993 33.9618L35.0007 34.0382C35.0963 36.5378 35.3398 38.1929 36.6278 40.4891L38.3721 39.5106ZM36.9993 33.9618C36.9123 31.6857 37.0408 30.3969 37.9158 28.4015L36.0842 27.5983C35.0512 29.9539 34.9063 31.5667 35.0007 34.0382L36.9993 33.9618Z" fill="#BAAA72"/>
</svg>
